<?xml version="1.0" standalone="no"?>
<!DOCTYPE svg PUBLIC "-//W3C//DTD SVG 20010904//EN"
 "http://www.w3.org/TR/2001/REC-SVG-20010904/DTD/svg10.dtd">
<svg version="1.0" xmlns="http://www.w3.org/2000/svg"
 width="806.000000pt" height="782.000000pt" viewBox="0 0 806.000000 782.000000"
 preserveAspectRatio="xMidYMid meet">

<g transform="translate(0.000000,782.000000) scale(0.100000,-0.100000)"
fill="#000000" stroke="none">
<path d="M265 7540 c-7 -12 12 -299 25 -368 5 -26 23 -123 39 -215 17 -92 36
-177 42 -189 6 -11 20 -57 30 -102 11 -44 26 -94 34 -111 8 -16 22 -57 31 -90
10 -33 21 -65 26 -71 4 -6 17 -37 28 -69 11 -32 24 -63 29 -69 5 -6 17 -31 26
-56 19 -50 139 -294 188 -382 18 -31 44 -79 59 -107 15 -27 32 -52 38 -56 6
-3 19 -23 30 -43 11 -20 36 -57 54 -82 19 -25 60 -82 90 -127 31 -45 60 -83
64 -85 4 -2 25 -25 47 -53 172 -218 483 -516 670 -645 20 -14 57 -42 83 -62
26 -21 52 -38 58 -38 6 0 17 -7 25 -16 7 -8 30 -25 51 -37 22 -12 65 -36 96
-54 57 -31 230 -118 307 -153 86 -39 255 -90 360 -109 61 -11 125 -24 143 -29
28 -9 33 -8 44 11 16 28 24 508 24 1337 -1 595 -1 607 -24 704 -13 55 -31 118
-41 140 -10 23 -22 52 -26 66 -8 28 -85 172 -96 180 -3 3 -13 19 -22 36 -22
43 -147 194 -213 258 -84 81 -197 175 -269 222 -119 77 -410 210 -505 229 -19
4 -40 12 -47 17 -6 5 -49 18 -95 28 -46 11 -90 24 -98 28 -8 5 -71 19 -140 31
-69 12 -133 26 -142 31 -18 10 -258 44 -393 55 -44 4 -84 11 -90 15 -9 7 -87
13 -447 35 -55 4 -89 2 -93 -5z"/>
<path d="M7560 7539 c-74 -5 -169 -13 -210 -19 -41 -5 -127 -16 -190 -24 -221
-28 -340 -46 -358 -56 -9 -5 -62 -16 -117 -25 -55 -9 -127 -24 -160 -34 -33
-10 -85 -24 -115 -31 -30 -7 -68 -18 -85 -25 -16 -7 -61 -23 -100 -35 -38 -12
-74 -25 -80 -30 -5 -4 -35 -15 -65 -25 -30 -10 -62 -24 -71 -31 -8 -8 -20 -14
-26 -14 -5 0 -30 -11 -54 -24 -24 -14 -68 -37 -96 -52 -29 -15 -60 -35 -69
-46 -10 -10 -21 -18 -26 -18 -8 0 -73 -51 -177 -139 -64 -54 -231 -239 -231
-256 0 -7 -9 -20 -20 -30 -11 -10 -26 -30 -34 -44 -7 -14 -34 -63 -59 -108
-25 -45 -56 -114 -68 -155 -12 -40 -25 -78 -30 -84 -11 -13 -28 -132 -31 -214
-1 -36 -1 -478 0 -982 l2 -918 29 0 c17 0 32 4 35 9 3 4 34 11 68 15 87 9 245
41 260 54 7 5 39 17 72 26 32 10 75 26 95 37 19 10 39 19 43 19 9 0 173 81
250 124 123 68 137 76 143 86 4 6 27 22 53 36 26 13 63 37 83 52 105 79 120
90 244 195 59 49 376 366 423 422 18 22 64 81 103 130 38 50 78 99 87 110 16
17 54 72 112 159 8 13 24 36 34 52 35 52 82 129 95 154 7 14 28 52 46 85 45
81 135 262 135 271 0 4 6 15 14 23 7 9 25 51 40 94 14 43 33 88 40 100 8 12
17 38 21 57 4 19 17 58 30 85 12 28 26 70 30 95 4 25 14 57 21 72 13 25 40
134 79 323 29 136 68 504 58 533 -6 14 -61 14 -273 1z"/>
<path d="M3870 6533 c-14 -3 -29 -8 -35 -12 -5 -4 -37 -16 -70 -26 -65 -20
-185 -82 -185 -95 0 -5 -8 -11 -19 -15 -24 -7 -127 -110 -168 -169 -18 -24
-40 -64 -50 -88 -9 -24 -20 -46 -25 -49 -19 -13 -72 -275 -65 -322 12 -79 49
-225 66 -262 11 -22 24 -52 30 -67 23 -61 135 -186 228 -254 48 -35 136 -80
183 -93 25 -7 61 -20 80 -28 24 -9 79 -14 170 -16 124 -1 142 1 220 27 149 50
211 89 321 197 54 54 99 104 99 111 0 6 8 21 18 32 10 12 27 44 36 71 10 28
24 64 32 80 31 67 42 246 24 365 -12 71 -58 194 -96 252 -13 21 -24 41 -24 46
0 9 -131 144 -172 177 -13 11 -42 29 -64 40 -21 11 -46 26 -56 33 -9 7 -42 20
-75 29 -32 8 -64 20 -72 26 -14 12 -282 20 -331 10z"/>
<path d="M5105 3693 c-18 -102 -45 -215 -68 -278 -68 -187 -197 -360 -340
-456 -74 -50 -184 -105 -239 -120 -24 -6 -52 -15 -63 -19 -97 -40 -527 -40
-610 0 -11 5 -46 16 -77 24 -32 8 -70 22 -85 30 -16 8 -47 23 -70 34 -79 38
-232 169 -296 253 -41 55 -90 137 -105 174 -8 22 -21 47 -28 55 -13 16 -56
151 -81 258 -8 34 -20 62 -25 62 -6 0 -27 -14 -47 -30 -78 -65 -98 -81 -151
-119 -30 -22 -84 -62 -120 -90 -36 -28 -91 -71 -122 -96 -32 -25 -60 -45 -63
-45 -2 0 -15 -9 -27 -21 -42 -37 -152 -124 -196 -153 -37 -25 -42 -33 -37 -55
3 -13 15 -36 26 -49 10 -14 19 -31 19 -39 0 -13 77 -162 89 -173 3 -3 15 -23
26 -45 11 -21 38 -61 60 -88 22 -28 51 -68 65 -91 27 -46 29 -47 167 -190 52
-55 108 -109 123 -120 94 -70 117 -87 130 -99 14 -13 67 -48 165 -108 107 -66
284 -137 425 -170 47 -11 99 -24 115 -29 148 -46 758 -48 819 -2 6 5 43 14 81
21 39 8 104 26 145 41 41 16 85 31 97 35 28 8 185 87 234 118 283 176 501 393
682 677 36 55 92 162 107 200 8 19 22 46 32 60 10 14 21 39 24 57 5 26 2 33
-17 43 -12 7 -46 31 -74 54 -28 22 -84 66 -124 96 -40 30 -84 65 -98 78 -14
12 -29 22 -32 22 -3 0 -26 18 -51 40 -25 22 -48 40 -52 40 -6 0 -132 100 -176
139 -12 12 -25 21 -28 21 -4 0 -27 17 -53 38 -69 57 -69 57 -76 15z"/>
<path d="M6167 1612 c-138 -3 -138 -3 -131 -25 4 -12 10 -24 13 -27 4 -3 15
-27 25 -55 10 -27 25 -57 32 -66 8 -9 21 -38 30 -65 9 -27 23 -56 30 -64 7 -8
25 -46 40 -85 15 -38 33 -77 39 -85 7 -8 16 -26 20 -40 4 -14 25 -63 47 -110
22 -47 50 -107 63 -135 29 -65 42 -91 67 -140 11 -22 23 -58 26 -81 4 -35 0
-46 -28 -77 -41 -48 -90 -61 -202 -54 l-88 4 -1 -36 c-2 -35 -1 -160 0 -192 1
-8 18 -22 39 -31 46 -20 218 -31 292 -19 129 21 228 84 269 171 12 25 26 52
31 60 15 24 90 189 90 200 0 5 18 47 40 94 22 47 40 91 40 98 0 8 6 22 14 33
7 11 23 46 34 77 12 32 26 66 32 75 10 18 52 118 93 223 11 30 24 57 28 60 3
3 10 16 14 30 4 14 18 48 31 75 30 66 64 157 64 173 0 9 -46 12 -198 12 l-199
0 -11 -25 c-6 -13 -18 -52 -27 -86 -9 -34 -22 -71 -29 -83 -8 -11 -19 -46 -26
-76 -7 -30 -20 -72 -30 -92 -10 -20 -25 -69 -35 -108 -26 -105 -54 -107 -75
-5 -6 28 -17 62 -24 77 -8 15 -26 69 -41 120 -15 51 -31 98 -35 103 -5 6 -14
33 -21 60 -7 28 -18 64 -26 82 -13 31 -13 31 -95 35 -46 2 -145 2 -221 0z"/>
<path d="M1178 1483 c-2 -71 -2 -377 0 -681 l2 -554 433 5 c258 3 460 9 502
16 230 38 359 238 300 466 -9 33 -26 74 -38 92 -31 44 -99 92 -161 113 -60 20
-65 38 -16 62 45 23 115 89 135 129 21 40 31 191 16 246 -28 101 -150 201
-272 222 -41 7 -221 11 -482 11 l-416 0 -3 -127z m682 -148 c48 -10 67 -26 90
-71 22 -42 25 -66 11 -92 -5 -9 -12 -25 -15 -34 -3 -9 -24 -29 -48 -44 -39
-25 -54 -28 -160 -32 -85 -3 -122 -1 -133 8 -12 10 -15 38 -15 137 0 113 2
124 19 131 25 9 205 7 251 -3z m74 -529 c52 -22 76 -60 76 -123 0 -123 -66
-163 -272 -163 -64 0 -123 3 -132 6 -13 5 -16 27 -16 138 0 89 4 136 12 144
18 18 288 16 332 -2z"/>
<path d="M4862 933 l3 -678 200 0 200 0 5 515 5 515 330 5 330 5 3 158 3 157
-541 0 -540 0 2 -677z"/>
<path d="M2824 1219 c-96 -16 -171 -76 -204 -164 -23 -61 -9 -199 24 -244 30
-39 109 -106 138 -115 45 -15 45 -31 -1 -56 -38 -22 -78 -74 -116 -150 -10
-19 -23 -42 -30 -50 -7 -8 -20 -36 -30 -63 -10 -26 -21 -47 -24 -47 -7 0 -31
-58 -31 -73 0 -4 89 -6 197 -5 l198 3 62 120 c34 66 71 138 82 160 29 60 82
107 117 103 33 -3 32 2 33 -265 l1 -123 180 0 180 0 0 490 0 490 -362 -1
c-200 -1 -386 -5 -414 -10z m401 -284 l0 -80 -75 -2 c-131 -4 -191 34 -174
110 9 41 47 54 157 53 l92 -1 0 -80z"/>
<path d="M3750 1100 l0 -130 133 0 c90 0 137 -4 145 -12 9 -9 12 -103 12 -360
l0 -348 180 0 180 0 0 344 c0 189 3 351 6 360 5 14 27 16 140 16 100 0 134 3
135 13 6 73 7 142 2 190 l-6 57 -463 0 -464 0 0 -130z"/>
</g>
</svg>
